<?xml version="1.0" encoding="UTF-8" standalone="no"?>
<svg
   version="1.1"
   width="2000"
   height="2000"
   id="svg10"
   sodipodi:docname="color_logo_transparent_by_prism_square_center.svg"
   inkscape:version="1.3 (0e150ed6c4, 2023-07-21)"
   inkscape:export-filename="color_logo_transparent_by_prism.png"
   inkscape:export-xdpi="11.52"
   inkscape:export-ydpi="11.52"
   xmlns:inkscape="http://www.inkscape.org/namespaces/inkscape"
   xmlns:sodipodi="http://sodipodi.sourceforge.net/DTD/sodipodi-0.dtd"
   xmlns="http://www.w3.org/2000/svg"
   xmlns:svg="http://www.w3.org/2000/svg">
  <defs
     id="defs10">
    <rect
       x="1436.791"
       y="140.55563"
       width="700.54718"
       height="303.42169"
       id="rect10" />
    <defs
       id="SvgjsDefs1017" />
  </defs>
  <sodipodi:namedview
     id="namedview10"
     pagecolor="#ffffff"
     bordercolor="#000000"
     borderopacity="0.25"
     inkscape:showpageshadow="2"
     inkscape:pageopacity="0.0"
     inkscape:pagecheckerboard="0"
     inkscape:deskcolor="#d1d1d1"
     inkscape:zoom="0.22411054"
     inkscape:cx="1003.9689"
     inkscape:cy="1430.0979"
     inkscape:window-width="1920"
     inkscape:window-height="1009"
     inkscape:window-x="1912"
     inkscape:window-y="-8"
     inkscape:window-maximized="1"
     inkscape:current-layer="svg10" />
  <g
     id="main_text"
     rel="mainfill"
     name="main_text"
     feature="main_text"
     groupName="main_text"
     fill="#31859c"
     transform="matrix(14.412061,0,0,14.412061,645.26253,1194.0461)">
    <path
       d="m 6.52,8.04 c 0.34,0.8 0.5,1.64 0.5,2.5 0,0.86 -0.16,1.72 -0.5,2.5 -0.32,0.8 -0.78,1.5 -1.4,2.12 C 4.5,15.78 3.78,16.26 3,16.58 L 2.52,16.76 V 20 H 1.8 V 15.1 C 1.44,15.2 1.08,15.26 0.72,15.28 V 20 H 0 V 4.02 c 1.02,0 1.98,0.06 3,0.48 0.78,0.34 1.5,0.82 2.12,1.42 0.62,0.62 1.08,1.32 1.4,2.12 z M 5.86,12.78 C 6.16,12.08 6.3,11.32 6.3,10.54 6.3,9.76 6.16,9.02 5.86,8.32 5.56,7.6 5.14,6.98 4.6,6.44 3.82,5.66 2.9,5.14 1.8,4.88 1.42,4.8 1.1,4.74 0.72,4.74 v 9.82 C 1.08,14.54 1.44,14.46 1.8,14.34 V 6 C 2.04,6.06 2.28,6.16 2.52,6.26 3,6.5 3.46,6.8 3.84,7.2 4.72,8.08 5.24,9.28 5.22,10.54 5.24,11.8 4.72,13.02 3.84,13.9 3.46,14.28 3.02,14.6 2.52,14.82 V 16 C 3.3,15.78 4.02,15.24 4.6,14.66 5.16,14.1 5.58,13.48 5.86,12.78 Z M 2.52,7.08 v 6.94 c 0.3,-0.18 0.56,-0.4 0.8,-0.64 C 4.1,12.64 4.5,11.6 4.5,10.54 4.5,9.48 4.1,8.44 3.32,7.7 3.08,7.46 2.82,7.24 2.52,7.08 Z M 16.24,20 13.94,14.54 c 0.18,-0.22 0.36,-0.4 0.52,-0.62 1.18,-1.66 1.38,-3.84 0.58,-5.7 -0.8,-1.76 -2.46,-3.12 -4.42,-3.4 l 0.52,1.22 c 1.8,0.58 3.14,2.2 3.3,4.12 0.16,1.92 -0.94,3.86 -2.7,4.66 V 16 c 0.48,-0.16 0.92,-0.42 1.34,-0.72 L 15.06,20 h -0.78 l -1.54,-3.66 c -0.32,0.16 -0.66,0.32 -1,0.42 V 20 H 11.02 V 12.26 L 9.94,9.7 V 20 H 9.22 V 6.14 l 3.14,7.44 c 0.32,-0.3 0.58,-0.6 0.78,-0.94 L 9.5,4.02 c 0.78,-0.02 1.54,0.08 2.24,0.32 1.98,0.64 3.56,2.24 4.2,4.22 0.64,2.08 0.24,4.4 -1.16,6.12 L 17.02,20 Z m -4.5,-12.52 1.8,4.28 C 14,10.32 13.58,8.74 12.56,7.72 12.3,7.46 12.02,7.24 11.74,7.1 Z M 24.22,4.02 v 0.72 h -1.84 v 1.08 h 1.84 v 0.72 h -1.84 v 10.94 h 1.84 V 18.2 H 20.7 v 1.08 h 3.52 V 20 h -6.04 v -0.72 h 1.84 V 18.2 h -1.84 v -0.72 h 1.84 V 6.54 H 18.18 V 5.82 H 21.7 V 4.74 H 18.18 V 4.02 Z M 20.7,17.48 h 1 V 6.54 h -1 z m 13.32,-11.24 -0.6,0.4 c -0.1,-0.16 -0.2,-0.26 -0.3,-0.4 L 32.78,5.88 C 32.52,5.64 32.26,5.44 32,5.3 31.42,4.94 30.78,4.76 30.1,4.76 29.76,4.76 29.44,4.8 29.12,4.88 28.8,4.96 28.48,5.1 28.18,5.26 27.58,5.6 27.12,6.1 26.82,6.72 c -0.3,0.62 -0.4,1.3 -0.3,2 0.12,0.7 0.42,1.28 0.9,1.78 0.24,0.26 0.48,0.48 0.74,0.64 0.72,0.48 1.5,0.84 2.24,1.3 0.94,0.56 1.84,1.22 2.14,2.1 0.14,0.42 0.16,0.88 0.08,1.42 -0.08,0.5 -0.28,0.92 -0.58,1.28 -0.3,0.36 -0.68,0.62 -1.16,0.78 -0.48,0.14 -0.96,0.18 -1.44,0.1 -0.96,-0.16 -1.84,-0.78 -2.54,-1.56 l 0.54,-0.48 c 0.62,0.7 1.34,1.18 2.12,1.32 0.78,0.14 1.5,-0.08 1.92,-0.62 0.22,-0.26 0.36,-0.58 0.42,-0.94 0.08,-0.42 0.06,-0.78 -0.04,-1.08 C 31.76,14.48 31.56,14.2 31.24,13.9 30.9,13.6 30.5,13.32 30.04,13.06 28.92,12.4 27.74,11.92 26.88,10.98 26.34,10.42 25.96,9.68 25.82,8.82 25.68,8 25.8,7.14 26.18,6.4 26.56,5.64 27.1,5.06 27.82,4.64 28.2,4.42 28.56,4.28 28.94,4.18 29.32,4.1 29.7,4.04 30.1,4.04 c 0.8,0 1.6,0.24 2.26,0.64 0.34,0.18 0.62,0.42 0.92,0.68 0.36,0.34 0.6,0.62 0.74,0.88 z M 32.5,7.22 31.9,7.6 C 31.48,6.98 30.8,6.56 30.1,6.56 c -0.36,0 -0.7,0.08 -1,0.26 -0.3,0.18 -0.52,0.4 -0.66,0.7 -0.14,0.28 -0.18,0.58 -0.14,0.9 0.06,0.32 0.22,0.6 0.44,0.86 0.24,0.26 0.46,0.36 1.08,0.74 0.48,0.3 0.98,0.56 1.52,0.88 0.54,0.32 1.04,0.66 1.58,1.14 0.26,0.24 0.52,0.5 0.76,0.82 0.22,0.34 0.42,0.7 0.56,1.08 0.14,0.4 0.2,0.8 0.22,1.2 0.02,0.38 -0.02,0.76 -0.08,1.1 -0.1,0.78 -0.42,1.54 -0.96,2.16 -0.54,0.62 -1.2,1.06 -1.98,1.32 -0.74,0.26 -1.52,0.32 -2.3,0.18 C 28.4,19.76 27.72,19.5 27.1,19.1 26.52,18.72 26,18.28 25.54,17.74 l 0.54,-0.46 c 0.42,0.48 0.9,0.88 1.4,1.2 0.54,0.34 1.14,0.6 1.78,0.7 0.64,0.1 1.32,0.08 1.96,-0.14 0.66,-0.22 1.22,-0.58 1.64,-1.1 0.46,-0.54 0.72,-1.16 0.82,-1.8 0.1,-0.62 0.1,-1.32 -0.12,-1.96 -0.22,-0.66 -0.66,-1.2 -1.12,-1.62 -0.48,-0.42 -0.98,-0.74 -1.48,-1.04 -0.5,-0.3 -1,-0.56 -1.5,-0.86 L 29.08,10.44 C 28.76,10.26 28.48,10.04 28.22,9.78 27.86,9.4 27.66,9 27.6,8.54 27.52,8.08 27.58,7.64 27.8,7.2 c 0.22,-0.46 0.52,-0.78 0.94,-1 0.42,-0.24 0.86,-0.36 1.36,-0.36 0.94,0 1.96,0.56 2.4,1.38 z M 39.8,11 36.22,4.02 h 0.68 0.06 L 39.8,9.5 42.58,4.02 h 0.12 0.64 z m 0,2.24 3.62,-7.1 V 7.66 20 H 42.7 V 9.04 L 41.68,11.1 V 20 H 40.92 V 12.42 L 39.8,14.7 38.66,12.54 V 20 H 37.98 V 11.2 L 36.9,9.16 V 20 H 36.22 V 7.78 6.26 Z"
       id="path1" />
  </g>
  <g
     id="slogan_text"
     rel="mainfill"
     name="slogan_text"
     feature="slogan_text"
     groupName="slogan_text"
     fill="#31859c"
     transform="matrix(10.617921,0,0,10.617921,1447.8403,749.67208)" />
  <g
     id="SvgjsG1020"
     rel="mainfill"
     name="symbol"
     feature="symbol"
     fill="#31859c"
     transform="matrix(21.30162,0,0,21.30162,-58.908311,-133.28441)">
    <polygon
       points="95,53.48 95,57.806 46.269,59.035 "
       id="polygon2" />
    <polygon
       points="95,61.959 95,66.291 46.269,59.035 "
       id="polygon3" />
    <polygon
       points="95,70.345 95,74.796 46.269,59.035 "
       id="polygon4" />
    <polygon
       points="95,44.854 95,49.332 46.269,59.035 "
       id="polygon5" />
    <polygon
       points="95,36.05 95,40.811 46.269,59.035 "
       id="polygon6" />
    <polygon
       points="95,26.955 95,32.259 46.269,59.035 "
       id="polygon7" />
    <polygon
       points="95,17.347 95,22.949 46.269,59.035 "
       id="polygon8" />
    <polygon
       points="5,43.797 46.269,59.035 5,48.59 "
       id="polygon9" />
    <polygon
       points="33.175,53.062 37.594,44.134 44.881,31.511 56.47,48.902 57.288,48.203 45.478,30.478 46.269,29.107 57.292,48.199 60.596,45.373 46.269,20.559 28.5,51.335 "
       id="polygon10" />
    <path
       d="m 74.381,69.25 -6.068,-1.963 5.103,8.838 -35.124,2.254 H 20.647 L 31.522,56.404 26.332,55.091 10.418,82.653 h 71.701 z m -56.56,9.129 11.436,-19.806 -9.801,19.806 z m 56.19,-1.222 0.706,1.222 H 54.972 Z"
       id="path10" />
  </g>
  <text
     xml:space="preserve"
     id="text10"
     style="font-size:266.667px;white-space:pre;shape-inside:url(#rect10);display:inline;fill:#000000"
     transform="matrix(0.38696278,0,0,0.38696278,81.978152,1072.6994)"><tspan
       x="1436.791"
       y="383.18675"
       id="tspan3"><tspan
         style="font-family:Bellerose;-inkscape-font-specification:Bellerose;fill:#31859c"
         id="tspan1">by</tspan></tspan></text>
</svg>
