<?xml version="1.0" encoding="UTF-8" standalone="no"?>
<!-- Created with Inkscape (http://www.inkscape.org/) -->

<svg
   width="1190"
   height="1190"
   viewBox="0 0 314.85416 314.85416"
   version="1.1"
   id="svg550"
   inkscape:version="1.2 (dc2aedaf03, 2022-05-15)"
   sodipodi:docname="logo.svg"
   xmlns:inkscape="http://www.inkscape.org/namespaces/inkscape"
   xmlns:sodipodi="http://sodipodi.sourceforge.net/DTD/sodipodi-0.dtd"
   xmlns="http://www.w3.org/2000/svg"
   xmlns:svg="http://www.w3.org/2000/svg">
  <sodipodi:namedview
     id="namedview552"
     pagecolor="#ffffff"
     bordercolor="#000000"
     borderopacity="0.25"
     inkscape:showpageshadow="2"
     inkscape:pageopacity="0.0"
     inkscape:pagecheckerboard="0"
     inkscape:deskcolor="#d1d1d1"
     inkscape:document-units="mm"
     showgrid="false"
     inkscape:zoom="0.52724989"
     inkscape:cx="1096.2544"
     inkscape:cy="542.43729"
     inkscape:window-width="1920"
     inkscape:window-height="1017"
     inkscape:window-x="1912"
     inkscape:window-y="-8"
     inkscape:window-maximized="1"
     inkscape:current-layer="layer1" />
  <defs
     id="defs547" />
  <g
     inkscape:label="Calque 1"
     inkscape:groupmode="layer"
     id="layer1"
     transform="translate(203.53311,-2.1712021)">
    <g
       id="SvgjsG1020"
       rel="mainfill"
       name="symbol"
       feature="symbol"
       fill="#31859c"
       transform="matrix(3.4978684,0,0,3.4978684,-221.02245,-16.172985)">
      <polygon
         points="46.269,59.035 95,53.48 95,57.806 "
         id="polygon325" />
      <polygon
         points="46.269,59.035 95,61.959 95,66.291 "
         id="polygon327" />
      <polygon
         points="46.269,59.035 95,70.345 95,74.796 "
         id="polygon329" />
      <polygon
         points="46.269,59.035 95,44.854 95,49.332 "
         id="polygon331" />
      <polygon
         points="46.269,59.035 95,36.05 95,40.811 "
         id="polygon333" />
      <polygon
         points="46.269,59.035 95,26.955 95,32.259 "
         id="polygon335" />
      <polygon
         points="46.269,59.035 95,17.347 95,22.949 "
         id="polygon337" />
      <polygon
         points="5,48.59 5,43.797 46.269,59.035 "
         id="polygon339" />
      <polygon
         points="28.5,51.335 33.175,53.062 37.594,44.134 44.881,31.511 56.47,48.902 57.288,48.203 45.478,30.478 46.269,29.107 57.292,48.199 60.596,45.373 46.269,20.559 "
         id="polygon341" />
      <path
         d="m 74.381,69.25 -6.068,-1.963 5.103,8.838 -35.124,2.254 H 20.647 L 31.522,56.404 26.332,55.091 10.418,82.653 h 71.701 z m -56.56,9.129 11.436,-19.806 -9.801,19.806 z m 56.19,-1.222 0.706,1.222 H 54.972 Z"
         id="path343" />
    </g>
  </g>
</svg>
